<svg xmlns="http://www.w3.org/2000/svg" viewBox="0 0 372.42 372.42"><defs><style>.cls-1{fill:none;}.cls-2{fill:#894611;}.cls-3{fill:#ffd184;}</style></defs><title>toast-logo-padded_1</title><g id="Layer_2" data-name="Layer 2"><g id="Layer_1-2" data-name="Layer 1"><rect class="cls-1" width="372.42" height="372.42"/><path class="cls-2" d="M276,150.63c1.4-2.37,3.88-5.87,5.67-8.41,7.62-10.81,16.26-23.06,14.5-35.54-1.36-9.64-6.39-18.35-14.54-25.19-6.84-5.76-15.89-10.26-26.89-13.38-19.82-5.63-45.78-6.61-73.1-2.75s-52,12-69.48,22.87c-7.08,4.4-32.82,21.24-46.37,39C59,136.06,57,146.72,58.4,156.84c1.85,13.08,14.08,22.95,24.88,31.67,2.49,2,5.94,4.79,8,6.75-.78,5.35-2.72,15.65-4.35,24.27-6.6,34.89-11.14,60.54-9.4,72.83.39,2.76,2.22,9.58,10.78,13.32A38.61,38.61,0,0,0,98,308.23a154.24,154.24,0,0,0,24,1.11c19.37-.29,44.68-2.52,71.26-6.26s51.51-8.62,70.21-13.69a155.42,155.42,0,0,0,22.71-7.7,38.49,38.49,0,0,0,8.58-5.13c7.2-6,21.27-29.24,19.61-40.84-1.67-11.76-12.69-34.13-28.09-64.44C282.51,164,278.08,155.25,276,150.63Z"/><path class="cls-2" d="M211.32,276c-25.31,3.57-49.4,5.69-67.85,6a145.38,145.38,0,0,1-22.8-1.06,36.58,36.58,0,0,1-9.21-2.43c-8.15-3.56-9.89-10-10.26-12.68-1.65-11.7,2.67-36.12,9-69.34,1.55-8.21,3.4-18,4.14-23.1-2-1.87-5.25-4.52-7.63-6.44C96.38,158.61,84.73,149.2,83,136.75c-1.36-9.64,1.06-19.4,7-28.23,5-7.42,12.44-14.25,22.15-20.29,17.49-10.9,42.16-19,69.48-22.87s53.28-2.88,73.1,2.75c11,3.12,20.05,7.62,26.89,13.38,8.15,6.84,13.18,15.55,14.54,25.19,1.76,12.48-6.88,24.73-14.5,35.54-1.79,2.54-4.27,6-5.67,8.41,2.12,4.62,6.55,13.34,10.26,20.65,15.4,30.31,26.43,52.67,28.09,64.44.37,2.62.5,9.34-6.35,15a37,37,0,0,1-8.17,4.88A146.74,146.74,0,0,1,278.17,263C260.36,267.78,236.62,272.41,211.32,276Z"/><path class="cls-3" d="M261.68,151.25c-1.15-8.15,22.8-29.82,21-42.67-3.69-26.11-47.74-37-99.17-29.76s-90.75,29.92-87.06,56c1.8,12.79,30.6,27.08,31.73,35.08.92,6.47-15.89,77.13-13.51,93.95.92,6.56,43.77,5.84,94.76-1.36s92.36-18.35,91.44-24.91C298.48,220.79,262.57,157.57,261.68,151.25Z"/></g></g></svg>